HIERARCHY
ROOT Hips
{
	OFFSET 0.000000 0.000000 0.000000
	CHANNELS 6 Xposition Yposition Zposition Xrotation Yrotation Zrotation
	JOINT Chest
	{
		OFFSET 0.000000 0.009282 11.569106
		CHANNELS 3 Xrotation Yrotation Zrotation
		JOINT Chest2
		{
			OFFSET 0.000000 -0.016863 9.269641
			CHANNELS 3 Xrotation Yrotation Zrotation
			JOINT Chest3
			{
				OFFSET 0.000000 0.000000 8.374491
				CHANNELS 3 Xrotation Yrotation Zrotation
				JOINT Chest4
				{
					OFFSET 0.000000 0.000000 8.374493
					CHANNELS 3 Xrotation Yrotation Zrotation
					JOINT Neck
					{
						OFFSET 0.000000 -0.000001 12.152554
						CHANNELS 3 Xrotation Yrotation Zrotation
						JOINT Head
						{
							OFFSET 0.000000 -0.040100 7.802319
							CHANNELS 3 Xrotation Yrotation Zrotation
							End Site
							{
								OFFSET 0.000000 -0.020946 14.853096
							}
						}
					}
					JOINT RightCollar
					{
						OFFSET -2.894404 0.000000 6.791374
						CHANNELS 3 Xrotation Yrotation Zrotation
						JOINT RightShoulder
						{
							OFFSET -13.574684 0.000000 0.000000
							CHANNELS 3 Xrotation Yrotation Zrotation
							JOINT RightElbow
							{
								OFFSET -23.923903 0.000000 0.000000
								CHANNELS 3 Xrotation Yrotation Zrotation
								JOINT RightWrist
								{
									OFFSET -19.846718 -0.012765 0.000000
									CHANNELS 3 Xrotation Yrotation Zrotation
									End Site
									{
										OFFSET -14.973145 0.000000 0.000000
									}
								}
							}
						}
					}
					JOINT LeftCollar
					{
						OFFSET 2.894404 0.000000 6.791374
						CHANNELS 3 Xrotation Yrotation Zrotation
						JOINT LeftShoulder
						{
							OFFSET 13.574684 0.000000 0.000000
							CHANNELS 3 Xrotation Yrotation Zrotation
							JOINT LeftElbow
							{
								OFFSET 23.923903 0.000000 0.000000
								CHANNELS 3 Xrotation Yrotation Zrotation
								JOINT LeftWrist
								{
									OFFSET 19.846718 -0.012765 0.000000
									CHANNELS 3 Xrotation Yrotation Zrotation
									End Site
									{
										OFFSET 14.973145 0.000000 0.000000
									}
								}
							}
						}
					}
				}
			}
		}
	}
	JOINT RightHip
	{
		OFFSET -9.469263 -0.004642 0.045487
		CHANNELS 3 Xrotation Yrotation Zrotation
		JOINT RightKnee
		{
			OFFSET 0.000000 -0.002666 -40.478676
			CHANNELS 3 Xrotation Yrotation Zrotation
			JOINT RightAnkle
			{
				OFFSET 0.000000 -0.049110 -35.224068
				CHANNELS 3 Xrotation Yrotation Zrotation
				JOINT RightToe
				{
					OFFSET 0.000000 -12.539530 -6.151390
					CHANNELS 3 Xrotation Yrotation Zrotation
					End Site
					{
						OFFSET 0.000000 -5.044995 -1.291870
					}
				}
			}
		}
	}
	JOINT LeftHip
	{
		OFFSET 9.469263 -0.004642 0.045487
		CHANNELS 3 Xrotation Yrotation Zrotation
		JOINT LeftKnee
		{
			OFFSET 0.000000 -0.002666 -40.478676
			CHANNELS 3 Xrotation Yrotation Zrotation
			JOINT LeftAnkle
			{
				OFFSET 0.000000 -0.049110 -35.224068
				CHANNELS 3 Xrotation Yrotation Zrotation
				JOINT LeftToe
				{
					OFFSET 0.000000 -12.539530 -6.151390
					CHANNELS 3 Xrotation Yrotation Zrotation
					End Site
					{
						OFFSET 0.000000 -5.044995 -1.291870
					}
				}
			}
		}
	}
}
MOTION
Frames: 12
Frame Time: 0.016667
-9.560310 -6.411754 83.197891 1.930543 3.169202 -113.382281 9.776541 0.932937 0.212430 4.344836 0.415042 0.095668 4.344838 0.415042 0.095673 3.258679 0.310621 0.074708 25.643774 -1.055535 -0.115489 11.434362 -1.908673 -0.452940 3.357578 -6.460902 1.482528 20.915697 -60.499623 46.069875 47.267061 -20.945624 83.825860 -45.882882 31.152237 66.854923 2.591437 11.231160 -5.402661 10.546016 45.181961 -38.951162 55.474643 27.643251 -80.652813 -51.903495 -34.325362 -76.708113 5.706206 -0.211418 -0.482059 1.069168 -0.053117 -0.316489 -3.230945 -1.471670 -0.319720 0.018751 0.012612 -0.001651 6.253130 -0.337761 1.753207 -0.481101 -0.155315 1.306674 -1.929512 0.830731 -0.873208 0.021689 0.043761 0.003187 
-9.574820 -6.373909 83.195938 1.945529 3.244871 -113.377390 9.719443 0.944687 0.205128 4.319703 0.420826 0.093085 4.319705 0.420827 0.093088 3.239826 0.314979 0.072791 25.569938 -1.051510 -0.130219 11.297062 -1.897767 -0.480106 3.317178 -6.474414 1.503765 21.230772 -60.239304 46.181194 47.363264 -22.733771 83.188337 -45.883356 31.384726 66.123649 2.587236 11.233762 -5.397522 10.915542 45.182603 -39.008184 55.386499 28.751903 -79.948997 -52.794760 -34.012576 -76.097808 5.795740 -0.216274 -0.506024 1.085171 -0.057116 -0.295339 -3.261841 -1.447701 -0.329452 0.017909 0.010893 -0.001762 6.340232 -0.342099 1.763588 -0.462234 -0.157500 1.294462 -1.954497 0.841566 -0.878749 0.017735 0.044746 0.002755 
-9.587905 -6.336009 83.193024 1.961653 3.320515 -113.362972 9.656407 0.956296 0.199150 4.291797 0.425984 0.091262 4.291798 0.425984 0.091267 3.218897 0.318864 0.071445 25.486455 -1.052671 -0.147406 11.141765 -1.895764 -0.513100 3.281073 -6.476981 1.519580 21.404186 -60.053817 46.246094 47.507965 -24.541679 82.569235 -45.996229 31.678059 65.453177 2.561656 11.243717 -5.407081 11.208208 45.160589 -39.059113 55.297860 29.802711 -79.259592 -53.720783 -33.621579 -75.381478 5.888485 -0.223342 -0.529225 1.096925 -0.060706 -0.279135 -3.294752 -1.423686 -0.340760 0.019749 0.009358 -0.001639 6.421921 -0.346424 1.732825 -0.434967 -0.164734 1.302705 -1.985135 0.854212 -0.871278 0.016585 0.045906 0.002058 
-9.600652 -6.301195 83.188957 1.979853 3.396051 -113.336355 9.595376 0.966875 0.190890 4.264742 0.429602 0.088769 4.264742 0.429601 0.088766 3.198602 0.321600 0.069578 25.389488 -1.054923 -0.166707 10.961405 -1.895186 -0.550426 3.225013 -6.467969 1.538733 21.646220 -59.869887 46.399466 47.539278 -26.273269 81.954197 -46.132552 32.007209 64.857332 2.460822 11.254843 -5.400542 11.544501 45.141625 -39.174519 55.171925 30.874309 -78.565631 -54.533675 -33.242476 -74.653175 5.987675 -0.232960 -0.559204 1.097088 -0.063398 -0.267668 -3.325823 -1.400740 -0.355242 0.024298 0.007639 -0.001594 6.500464 -0.346822 1.670211 -0.405057 -0.182357 1.326311 -2.018694 0.867524 -0.856383 0.018746 0.048672 0.000072 
-9.613113 -6.268368 83.184242 1.993512 3.466948 -113.307545 9.538722 0.976163 0.178990 4.239383 0.433274 0.084494 4.239384 0.433273 0.084497 3.179584 0.324389 0.066380 25.273175 -1.053100 -0.184872 10.745167 -1.887292 -0.585012 3.143376 -6.457039 1.570048 21.984313 -59.650856 46.653805 47.437832 -27.948236 81.391294 -46.231228 32.329017 64.222083 2.373073 11.236025 -5.380644 11.857523 45.131947 -39.364211 55.011187 31.997493 -77.893260 -55.300695 -32.883789 -73.986399 6.080595 -0.235590 -0.600024 1.098653 -0.072659 -0.259867 -3.361908 -1.377353 -0.354854 0.031361 0.006697 -0.001046 6.573220 -0.348103 1.612527 -0.376954 -0.192581 1.342787 -2.050810 0.875505 -0.849252 0.020659 0.051722 -0.001357 
-9.626580 -6.236702 83.179794 2.004053 3.539579 -113.272875 9.472340 0.986280 0.171095 4.209408 0.438059 0.081945 4.209411 0.438059 0.081951 3.157101 0.327999 0.064483 25.152641 -1.056329 -0.205801 10.521023 -1.887947 -0.625901 3.086093 -6.462795 1.602506 22.311166 -59.420686 46.960020 47.234016 -29.683872 80.856900 -46.259621 32.629781 63.444213 2.340214 11.193524 -5.380515 12.133313 45.106761 -39.598268 54.808744 33.159213 -77.305297 -56.106708 -32.703543 -73.311603 6.174733 -0.235626 -0.654906 1.100758 -0.079311 -0.253999 -3.401453 -1.358045 -0.343590 0.038939 0.006941 -0.001095 6.645966 -0.347120 1.566596 -0.349127 -0.199630 1.356356 -2.081909 0.884007 -0.857815 0.021877 0.052112 -0.001098 
-9.640851 -6.204720 83.175774 2.014265 3.613798 -113.239147 9.395145 0.993398 0.165760 4.174832 0.441915 0.080214 4.174834 0.441916 0.080212 3.131163 0.330906 0.063179 25.032148 -1.061002 -0.228919 10.296902 -1.890632 -0.671157 3.050393 -6.462131 1.622893 22.522322 -59.212296 47.267443 47.010464 -31.482487 80.350844 -46.359366 32.983653 62.567675 2.316092 11.158956 -5.393079 12.380044 45.065933 -39.858884 54.535949 34.321366 -76.742633 -56.932557 -32.589295 -72.453527 6.268406 -0.235222 -0.708290 1.108161 -0.084019 -0.251237 -3.444832 -1.342638 -0.332406 0.045196 0.008918 -0.000808 6.719748 -0.345259 1.541244 -0.319802 -0.206203 1.354562 -2.114190 0.895415 -0.863206 0.022500 0.049965 -0.000474 
-9.655315 -6.172282 83.171219 2.029688 3.686964 -113.206164 9.303389 1.000696 0.163363 4.134093 0.444929 0.079276 4.134094 0.444929 0.079278 3.100613 0.333180 0.062471 24.915927 -1.067204 -0.250126 10.080743 -1.896529 -0.713210 3.010033 -6.457035 1.622743 22.692504 -59.019794 47.601330 46.777230 -33.432932 79.862219 -46.551786 33.415652 61.713102 2.272836 11.128261 -5.401241 12.618734 45.022254 -40.144710 54.181804 35.470316 -76.175932 -57.683625 -32.489113 -71.353969 6.361309 -0.239901 -0.757120 1.119424 -0.089494 -0.249316 -3.490887 -1.328503 -0.324859 0.050425 0.012073 -0.000680 6.796880 -0.346174 1.526851 -0.294214 -0.217667 1.347908 -2.148517 0.911772 -0.864921 0.025904 0.046483 0.000026 
-9.671570 -6.139324 83.165573 2.050529 3.764764 -113.170634 9.196127 1.004342 0.163930 4.086167 0.445733 0.079472 4.086172 0.445734 0.079466 3.064671 0.333787 0.062585 24.809192 -1.073836 -0.273111 9.882150 -1.902748 -0.758513 2.973265 -6.448154 1.625494 22.888007 -58.802253 47.978927 46.453558 -35.460696 79.412267 -46.816377 33.989712 60.900924 2.234550 11.105578 -5.422952 12.796598 44.985743 -40.432927 53.789495 36.596058 -75.581828 -58.444228 -32.400471 -70.072413 6.465910 -0.245519 -0.811086 1.123924 -0.100836 -0.241119 -3.538248 -1.309607 -0.321108 0.056658 0.013424 0.000450 6.881635 -0.351127 1.518493 -0.267092 -0.230957 1.336611 -2.189860 0.931541 -0.884629 0.032667 0.043135 -0.000658 
-9.690498 -6.107063 83.158699 2.072123 3.854530 -113.130889 9.076924 1.004872 0.165822 4.033134 0.445543 0.080560 4.033135 0.445543 0.080560 3.024895 0.333642 0.063364 24.705699 -1.080737 -0.299897 9.689583 -1.908493 -0.810811 2.963423 -6.426896 1.634134 23.219351 -58.551640 48.493920 45.921691 -37.254468 78.927535 -47.179385 34.731218 59.979853 2.212108 11.085237 -5.468791 12.934672 44.942515 -40.730457 53.323376 37.722226 -74.967603 -59.249938 -32.220553 -68.645027 6.585174 -0.246847 -0.873232 1.126686 -0.112119 -0.238855 -3.591017 -1.290011 -0.308778 0.065140 0.012690 0.000527 6.976463 -0.351514 1.495765 -0.236089 -0.240027 1.327458 -2.236189 0.943513 -0.887322 0.040003 0.042203 -0.001202 
-9.712127 -6.075281 83.150818 2.098902 3.949387 -113.091875 8.957880 0.999900 0.168762 3.980093 0.443028 0.082017 3.980090 0.443028 0.082020 2.985114 0.331754 0.064402 24.591710 -1.084706 -0.329710 9.477513 -1.907992 -0.868134 2.950110 -6.400580 1.652645 23.538568 -58.295289 49.028607 45.248863 -38.832484 78.446430 -47.420446 35.478595 58.751368 2.198690 11.057980 -5.512340 13.086694 44.890322 -41.084551 52.769399 38.870139 -74.366061 -60.037793 -32.014767 -67.232455 6.711471 -0.251804 -0.925116 1.132485 -0.120664 -0.246530 -3.648359 -1.269796 -0.296130 0.073279 0.009728 0.001352 7.079275 -0.353266 1.452071 -0.201632 -0.253186 1.341431 -2.290797 0.956775 -0.901039 0.049375 0.042727 -0.001920 
-9.734237 -6.042735 83.142700 2.127338 4.053579 -113.047725 8.841826 0.994420 0.167863 3.928587 0.440866 0.082271 3.928587 0.440866 0.082269 2.946484 0.330137 0.064539 24.464664 -1.088445 -0.358231 9.241179 -1.907219 -0.923230 2.926587 -6.384415 1.682523 23.672042 -58.072659 49.447127 44.550831 -40.464243 77.987127 -47.348613 36.154090 57.327881 2.200268 11.021687 -5.555265 13.197738 44.838983 -41.468438 52.162541 40.002598 -73.786834 -60.856132 -31.937282 -65.969239 6.845643 -0.261421 -0.960235 1.144025 -0.120809 -0.266627 -3.713270 -1.245403 -0.298441 0.082533 0.001980 0.004003 7.188620 -0.351596 1.386090 -0.163119 -0.267714 1.360677 -2.347485 0.966600 -0.899834 0.057586 0.045062 -0.003641 
